{
  "accessors": [
    {
      "bufferView": 0,
      "componentType": 5125,
      "count": 1056,
      "type": "SCALAR"
    },
    {
      "bufferView": 1,
      "componentType": 5126,
      "count": 224,
      "max": [
        0.610077202320099,
        0.144311934709549,
        0.159564018249512
      ],
      "min": [
        -1.0,
        -0.219714552164078,
        -0.159564018249512
      ],
      "type": "VEC3"
    },
    {
      "bufferView": 2,
      "componentType": 5126,
      "count": 224,
      "type": "VEC3"
    },
    {
      "bufferView": 3,
      "componentType": 5126,
      "count": 224,
      "type": "VEC2"
    },
    {
      "bufferView": 4,
      "componentType": 5125,
      "count": 276,
      "type": "SCALAR"
    },
    {
      "bufferView": 5,
      "componentType": 5126,
      "count": 64,
      "max": [
        0.0146922515705228,
        0.304832100868225,
        0.019817752763629
      ],
      "min": [
        -0.339210152626038,
        0.0836969241499901,
        -0.019817752763629
      ],
      "type": "VEC3"
    },
    {
      "bufferView": 6,
      "componentType": 5126,
      "count": 64,
      "type": "VEC3"
    },
    {
      "bufferView": 7,
      "componentType": 5126,
      "count": 64,
      "type": "VEC2"
    },
    {
      "bufferView": 8,
      "componentType": 5125,
      "count": 384,
      "type": "SCALAR"
    },
    {
      "bufferView": 9,
      "componentType": 5126,
      "count": 90,
      "max": [
        -0.245076909661293,
        -0.112866558134556,
        0.390925407409668
      ],
      "min": [
        -0.465196430683136,
        -0.304118096828461,
        0.105813413858414
      ],
      "type": "VEC3"
    },
    {
      "bufferView": 10,
      "componentType": 5126,
      "count": 90,
      "type": "VEC3"
    },
    {
      "bufferView": 11,
      "componentType": 5126,
      "count": 90,
      "type": "VEC2"
    },
    {
      "bufferView": 12,
      "componentType": 5125,
      "count": 528,
      "type": "SCALAR"
    },
    {
      "bufferView": 13,
      "componentType": 5126,
      "count": 125,
      "max": [
        1.0,
        0.348503589630127,
        0.0242128856480122
      ],
      "min": [
        0.49348059296608,
        -0.348503559827805,
        -0.0242128856480122
      ],
      "type": "VEC3"
    },
    {
      "bufferView": 14,
      "componentType": 5126,
      "count": 125,
      "type": "VEC3"
    },
    {
      "bufferView": 15,
      "componentType": 5126,
      "count": 125,
      "type": "VEC2"
    },
    {
      "bufferView": 16,
      "componentType": 5125,
      "count": 1092,
      "type": "SCALAR"
    },
    {
      "bufferView": 17,
      "componentType": 5126,
      "count": 198,
      "max": [
        -0.87569385766983,
        0.000518719956744462,
        0.0969375520944595
      ],
      "min": [
        -0.898148119449615,
        -0.0213725566864014,
        0.0744895786046982
      ],
      "type": "VEC3"
    },
    {
      "bufferView": 18,
      "componentType": 5126,
      "count": 198,
      "type": "VEC3"
    },
    {
      "bufferView": 19,
      "componentType": 5126,
      "count": 198,
      "type": "VEC2"
    },
    {
      "bufferView": 20,
      "componentType": 5125,
      "count": 1092,
      "type": "SCALAR"
    },
    {
      "bufferView": 21,
      "componentType": 5126,
      "count": 198,
      "max": [
        -0.87569385766983,
        0.000518719956744462,
        -0.0730526000261307
      ],
      "min": [
        -0.898148119449615,
        -0.0213725566864014,
        -0.095500573515892
      ],
      "type": "VEC3"
    },
    {
      "bufferView": 22,
      "componentType": 5126,
      "count": 198,
      "type": "VEC3"
    },
    {
      "bufferView": 23,
      "componentType": 5126,
      "count": 198,
      "type": "VEC2"
    },
    {
      "bufferView": 24,
      "componentType": 5125,
      "count": 204,
      "type": "SCALAR"
    },
    {
      "bufferView": 25,
      "componentType": 5126,
      "count": 48,
      "max": [
        0.36753123998642,
        -0.0999557450413704,
        0.0494992919266224
      ],
      "min": [
        0.182714015245438,
        -0.168950021266937,
        0.0154299987480044
      ],
      "type": "VEC3"
    },
    {
      "bufferView": 26,
      "componentType": 5126,
      "count": 48,
      "type": "VEC3"
    },
    {
      "bufferView": 27,
      "componentType": 5126,
      "count": 48,
      "type": "VEC2"
    },
    {
      "bufferView": 28,
      "componentType": 5125,
      "count": 204,
      "type": "SCALAR"
    },
    {
      "bufferView": 29,
      "componentType": 5126,
      "count": 48,
      "max": [
        0.36753123998642,
        -0.0999557077884674,
        -0.0121511658653617
      ],
      "min": [
        0.182714015245438,
        -0.168950036168098,
        -0.0462203659117222
      ],
      "type": "VEC3"
    },
    {
      "bufferView": 30,
      "componentType": 5126,
      "count": 48,
      "type": "VEC3"
    },
    {
      "bufferView": 31,
      "componentType": 5126,
      "count": 48,
      "type": "VEC2"
    },
    {
      "bufferView": 32,
      "componentType": 5125,
      "count": 276,
      "type": "SCALAR"
    },
    {
      "bufferView": 33,
      "componentType": 5126,
      "count": 64,
      "max": [
        0.469775348901749,
        0.0699104815721512,
        0.0114363841712475
      ],
      "min": [
        0.361171960830688,
        -0.00388641678728163,
        -0.0114363841712475
      ],
      "type": "VEC3"
    },
    {
      "bufferView": 34,
      "componentType": 5126,
      "count": 64,
      "type": "VEC3"
    },
    {
      "bufferView": 35,
      "componentType": 5126,
      "count": 64,
      "type": "VEC2"
    },
    {
      "bufferView": 36,
      "componentType": 5125,
      "count": 276,
      "type": "SCALAR"
    },
    {
      "bufferView": 37,
      "componentType": 5126,
      "count": 72,
      "max": [
        0.509487092494965,
        -0.0472709126770496,
        0.019817752763629
      ],
      "min": [
        0.425005167722702,
        -0.114507250487804,
        -0.0145896747708321
      ],
      "type": "VEC3"
    },
    {
      "bufferView": 38,
      "componentType": 5126,
      "count": 72,
      "type": "VEC3"
    },
    {
      "bufferView": 39,
      "componentType": 5126,
      "count": 72,
      "type": "VEC2"
    },
    {
      "bufferView": 40,
      "componentType": 5125,
      "count": 384,
      "type": "SCALAR"
    },
    {
      "bufferView": 41,
      "componentType": 5126,
      "count": 91,
      "max": [
        -0.245076909661293,
        -0.112866595387459,
        -0.105813398957253
      ],
      "min": [
        -0.465196400880814,
        -0.304118156433105,
        -0.390925377607346
      ],
      "type": "VEC3"
    },
    {
      "bufferView": 42,
      "componentType": 5126,
      "count": 91,
      "type": "VEC3"
    },
    {
      "bufferView": 43,
      "componentType": 5126,
      "count": 91,
      "type": "VEC2"
    }
  ],
  "asset": {
    "generator": "Substance Painter 2018.1.1",
    "version": "2.0"
  },
  "bufferViews": [
    {
      "buffer": 0,
      "byteLength": 4224,
      "target": 34963
    },
    {
      "buffer": 0,
      "byteLength": 2688,
      "byteOffset": 4224,
      "target": 34962
    },
    {
      "buffer": 0,
      "byteLength": 2688,
      "byteOffset": 6912,
      "target": 34962
    },
    {
      "buffer": 0,
      "byteLength": 1792,
      "byteOffset": 9600,
      "target": 34962
    },
    {
      "buffer": 0,
      "byteLength": 1104,
      "byteOffset": 11392,
      "target": 34963
    },
    {
      "buffer": 0,
      "byteLength": 768,
      "byteOffset": 12496,
      "target": 34962
    },
    {
      "buffer": 0,
      "byteLength": 768,
      "byteOffset": 13264,
      "target": 34962
    },
    {
      "buffer": 0,
      "byteLength": 512,
      "byteOffset": 14032,
      "target": 34962
    },
    {
      "buffer": 0,
      "byteLength": 1536,
      "byteOffset": 14544,
      "target": 34963
    },
    {
      "buffer": 0,
      "byteLength": 1080,
      "byteOffset": 16080,
      "target": 34962
    },
    {
      "buffer": 0,
      "byteLength": 1080,
      "byteOffset": 17160,
      "target": 34962
    },
    {
      "buffer": 0,
      "byteLength": 720,
      "byteOffset": 18240,
      "target": 34962
    },
    {
      "buffer": 0,
      "byteLength": 2112,
      "byteOffset": 18960,
      "target": 34963
    },
    {
      "buffer": 0,
      "byteLength": 1500,
      "byteOffset": 21072,
      "target": 34962
    },
    {
      "buffer": 0,
      "byteLength": 1500,
      "byteOffset": 22572,
      "target": 34962
    },
    {
      "buffer": 0,
      "byteLength": 1000,
      "byteOffset": 24072,
      "target": 34962
    },
    {
      "buffer": 0,
      "byteLength": 4368,
      "byteOffset": 25072,
      "target": 34963
    },
    {
      "buffer": 0,
      "byteLength": 2376,
      "byteOffset": 29440,
      "target": 34962
    },
    {
      "buffer": 0,
      "byteLength": 2376,
      "byteOffset": 31816,
      "target": 34962
    },
    {
      "buffer": 0,
      "byteLength": 1584,
      "byteOffset": 34192,
      "target": 34962
    },
    {
      "buffer": 0,
      "byteLength": 4368,
      "byteOffset": 35776,
      "target": 34963
    },
    {
      "buffer": 0,
      "byteLength": 2376,
      "byteOffset": 40144,
      "target": 34962
    },
    {
      "buffer": 0,
      "byteLength": 2376,
      "byteOffset": 42520,
      "target": 34962
    },
    {
      "buffer": 0,
      "byteLength": 1584,
      "byteOffset": 44896,
      "target": 34962
    },
    {
      "buffer": 0,
      "byteLength": 816,
      "byteOffset": 46480,
      "target": 34963
    },
    {
      "buffer": 0,
      "byteLength": 576,
      "byteOffset": 47296,
      "target": 34962
    },
    {
      "buffer": 0,
      "byteLength": 576,
      "byteOffset": 47872,
      "target": 34962
    },
    {
      "buffer": 0,
      "byteLength": 384,
      "byteOffset": 48448,
      "target": 34962
    },
    {
      "buffer": 0,
      "byteLength": 816,
      "byteOffset": 48832,
      "target": 34963
    },
    {
      "buffer": 0,
      "byteLength": 576,
      "byteOffset": 49648,
      "target": 34962
    },
    {
      "buffer": 0,
      "byteLength": 576,
      "byteOffset": 50224,
      "target": 34962
    },
    {
      "buffer": 0,
      "byteLength": 384,
      "byteOffset": 50800,
      "target": 34962
    },
    {
      "buffer": 0,
      "byteLength": 1104,
      "byteOffset": 51184,
      "target": 34963
    },
    {
      "buffer": 0,
      "byteLength": 768,
      "byteOffset": 52288,
      "target": 34962
    },
    {
      "buffer": 0,
      "byteLength": 768,
      "byteOffset": 53056,
      "target": 34962
    },
    {
      "buffer": 0,
      "byteLength": 512,
      "byteOffset": 53824,
      "target": 34962
    },
    {
      "buffer": 0,
      "byteLength": 1104,
      "byteOffset": 54336,
      "target": 34963
    },
    {
      "buffer": 0,
      "byteLength": 864,
      "byteOffset": 55440,
      "target": 34962
    },
    {
      "buffer": 0,
      "byteLength": 864,
      "byteOffset": 56304,
      "target": 34962
    },
    {
      "buffer": 0,
      "byteLength": 576,
      "byteOffset": 57168,
      "target": 34962
    },
    {
      "buffer": 0,
      "byteLength": 1536,
      "byteOffset": 57744,
      "target": 34963
    },
    {
      "buffer": 0,
      "byteLength": 1092,
      "byteOffset": 59280,
      "target": 34962
    },
    {
      "buffer": 0,
      "byteLength": 1092,
      "byteOffset": 60372,
      "target": 34962
    },
    {
      "buffer": 0,
      "byteLength": 728,
      "byteOffset": 61464,
      "target": 34962
    }
  ],
  "buffers": [
    {
      "byteLength": 62192,
      "uri": "SGW_Texture.bin"
    }
  ],
  "images": [
    {
      "uri": "Eye_baseColor.png"
    },
    {
      "uri": "Eye_occlusionRoughnessMetallic.png"
    },
    {
      "uri": "Eye_normal.png"
    },
    {
      "uri": "Fin_baseColor.png"
    },
    {
      "uri": "Fin_occlusionRoughnessMetallic.png"
    },
    {
      "uri": "Fin_normal.png"
    },
    {
      "uri": "Skin_baseColor.png"
    },
    {
      "uri": "Skin_occlusionRoughnessMetallic.png"
    },
    {
      "uri": "Skin_normal.png"
    }
  ],
  "materials": [
    {
      "alphaMode": "OPAQUE",
      "name": "Eye",
      "normalTexture": {
        "index": 2
      },
      "occlusionTexture": {
        "index": 1
      },
      "pbrMetallicRoughness": {
        "baseColorTexture": {
          "index": 0
        },
        "metallicRoughnessTexture": {
          "index": 1
        }
      }
    },
    {
      "alphaMode": "OPAQUE",
      "name": "Fin",
      "normalTexture": {
        "index": 5
      },
      "occlusionTexture": {
        "index": 4
      },
      "pbrMetallicRoughness": {
        "baseColorTexture": {
          "index": 3
        },
        "metallicRoughnessTexture": {
          "index": 4
        }
      }
    },
    {
      "alphaMode": "OPAQUE",
      "name": "Skin",
      "normalTexture": {
        "index": 8
      },
      "occlusionTexture": {
        "index": 7
      },
      "pbrMetallicRoughness": {
        "baseColorTexture": {
          "index": 6
        },
        "metallicRoughnessTexture": {
          "index": 7
        }
      }
    }
  ],
  "meshes": [
    {
      "name": "pCylinder1",
      "primitives": [
        {
          "attributes": {
            "NORMAL": 2,
            "POSITION": 1,
            "TEXCOORD_0": 3
          },
          "indices": 0,
          "material": 2,
          "mode": 4
        }
      ]
    },
    {
      "name": "pCube1",
      "primitives": [
        {
          "attributes": {
            "NORMAL": 6,
            "POSITION": 5,
            "TEXCOORD_0": 7
          },
          "indices": 4,
          "material": 1,
          "mode": 4
        }
      ]
    },
    {
      "name": "pCube6",
      "primitives": [
        {
          "attributes": {
            "NORMAL": 10,
            "POSITION": 9,
            "TEXCOORD_0": 11
          },
          "indices": 8,
          "material": 1,
          "mode": 4
        }
      ]
    },
    {
      "name": "pCube4",
      "primitives": [
        {
          "attributes": {
            "NORMAL": 14,
            "POSITION": 13,
            "TEXCOORD_0": 15
          },
          "indices": 12,
          "material": 1,
          "mode": 4
        }
      ]
    },
    {
      "name": "pSphere1",
      "primitives": [
        {
          "attributes": {
            "NORMAL": 18,
            "POSITION": 17,
            "TEXCOORD_0": 19
          },
          "indices": 16,
          "material": 0,
          "mode": 4
        }
      ]
    },
    {
      "name": "pasted__pSphere1",
      "primitives": [
        {
          "attributes": {
            "NORMAL": 22,
            "POSITION": 21,
            "TEXCOORD_0": 23
          },
          "indices": 20,
          "material": 0,
          "mode": 4
        }
      ]
    },
    {
      "name": "pCube5",
      "primitives": [
        {
          "attributes": {
            "NORMAL": 26,
            "POSITION": 25,
            "TEXCOORD_0": 27
          },
          "indices": 24,
          "material": 1,
          "mode": 4
        }
      ]
    },
    {
      "name": "pasted__pCube5",
      "primitives": [
        {
          "attributes": {
            "NORMAL": 30,
            "POSITION": 29,
            "TEXCOORD_0": 31
          },
          "indices": 28,
          "material": 1,
          "mode": 4
        }
      ]
    },
    {
      "name": "pasted__pCube1",
      "primitives": [
        {
          "attributes": {
            "NORMAL": 34,
            "POSITION": 33,
            "TEXCOORD_0": 35
          },
          "indices": 32,
          "material": 1,
          "mode": 4
        }
      ]
    },
    {
      "name": "pasted__pasted__pCube1",
      "primitives": [
        {
          "attributes": {
            "NORMAL": 38,
            "POSITION": 37,
            "TEXCOORD_0": 39
          },
          "indices": 36,
          "material": 1,
          "mode": 4
        }
      ]
    },
    {
      "name": "pCube7",
      "primitives": [
        {
          "attributes": {
            "NORMAL": 42,
            "POSITION": 41,
            "TEXCOORD_0": 43
          },
          "indices": 40,
          "material": 1,
          "mode": 4
        }
      ]
    }
  ],
  "nodes": [
    {
      "children": [
        1,
        3,
        5,
        7,
        9,
        11,
        13,
        15,
        17,
        19,
        21
      ],
      "name": "root",
      "scale": [
        13.4533319473267,
        13.4533319473267,
        13.4533319473267
      ],
      "translation": [
        1.42504978179932,
        0.677616119384766,
        0.0
      ]
    },
    {
      "children": [
        2
      ],
      "name": "pCylinder1"
    },
    {
      "mesh": 0,
      "name": "pCylinder1"
    },
    {
      "children": [
        4
      ],
      "name": "pCube1"
    },
    {
      "mesh": 1,
      "name": "pCube1"
    },
    {
      "children": [
        6
      ],
      "name": "pCube6"
    },
    {
      "mesh": 2,
      "name": "pCube6"
    },
    {
      "children": [
        8
      ],
      "name": "pCube4"
    },
    {
      "mesh": 3,
      "name": "pCube4"
    },
    {
      "children": [
        10
      ],
      "name": "pSphere1"
    },
    {
      "mesh": 4,
      "name": "pSphere1"
    },
    {
      "children": [
        12
      ],
      "name": "pasted__pSphere1"
    },
    {
      "mesh": 5,
      "name": "pasted__pSphere1"
    },
    {
      "children": [
        14
      ],
      "name": "pCube5"
    },
    {
      "mesh": 6,
      "name": "pCube5"
    },
    {
      "children": [
        16
      ],
      "name": "pasted__pCube5"
    },
    {
      "mesh": 7,
      "name": "pasted__pCube5"
    },
    {
      "children": [
        18
      ],
      "name": "pasted__pCube1"
    },
    {
      "mesh": 8,
      "name": "pasted__pCube1"
    },
    {
      "children": [
        20
      ],
      "name": "pasted__pasted__pCube1"
    },
    {
      "mesh": 9,
      "name": "pasted__pasted__pCube1"
    },
    {
      "children": [
        22
      ],
      "name": "pCube7"
    },
    {
      "mesh": 10,
      "name": "pCube7"
    }
  ],
  "samplers": [
    {
      "magFilter": 9729,
      "minFilter": 9985,
      "wrapS": 10497,
      "wrapT": 10497
    }
  ],
  "scene": 0,
  "scenes": [
    {
      "name": "Scene",
      "nodes": [
        0
      ]
    }
  ],
  "textures": [
    {
      "sampler": 0,
      "source": 0
    },
    {
      "sampler": 0,
      "source": 1
    },
    {
      "sampler": 0,
      "source": 2
    },
    {
      "sampler": 0,
      "source": 3
    },
    {
      "sampler": 0,
      "source": 4
    },
    {
      "sampler": 0,
      "source": 5
    },
    {
      "sampler": 0,
      "source": 6
    },
    {
      "sampler": 0,
      "source": 7
    },
    {
      "sampler": 0,
      "source": 8
    }
  ]
}